<mxfile host="app.diagrams.net" modified="2023-09-15T11:20:55.092Z" agent="Mozilla/5.0 (Windows NT 10.0; Win64; x64) AppleWebKit/537.36 (KHTML, like Gecko) Chrome/116.0.0.0 Safari/537.36" etag="0ttm9TNG8ZZTHD1Z5t-L" version="21.7.5" type="onedrive">
  <diagram name="Page-1" id="Iwi0l11Od3pBw5j15NGo">
    <mxGraphModel grid="1" page="1" gridSize="10" guides="1" tooltips="1" connect="1" arrows="1" fold="1" pageScale="1" pageWidth="827" pageHeight="1169" math="0" shadow="0">
      <root>
        <mxCell id="0" />
        <mxCell id="1" parent="0" />
        <mxCell id="pckFmJeNIJPQSOvkH00L-1" value="" style="html=1;whiteSpace=wrap;" vertex="1" parent="1">
          <mxGeometry x="234" y="110" width="366" height="590" as="geometry" />
        </mxCell>
        <mxCell id="pckFmJeNIJPQSOvkH00L-2" value="&lt;blockquote style=&quot;margin: 0 0 0 40px; border: none; padding: 0px;&quot;&gt;Movie Store System&lt;/blockquote&gt;" style="text;align=center;fontStyle=1;verticalAlign=middle;spacingLeft=3;spacingRight=3;strokeColor=none;rotatable=0;points=[[0,0.5],[1,0.5]];portConstraint=eastwest;html=1;" vertex="1" parent="1">
          <mxGeometry x="350" y="114.5" width="90" height="26" as="geometry" />
        </mxCell>
        <mxCell id="pckFmJeNIJPQSOvkH00L-3" value="Customer" style="shape=umlActor;verticalLabelPosition=bottom;verticalAlign=top;html=1;" vertex="1" parent="1">
          <mxGeometry x="160" y="245" width="30" height="60" as="geometry" />
        </mxCell>
        <mxCell id="pckFmJeNIJPQSOvkH00L-4" value="System user" style="shape=umlActor;verticalLabelPosition=bottom;verticalAlign=top;html=1;" vertex="1" parent="1">
          <mxGeometry x="640" y="525" width="30" height="60" as="geometry" />
        </mxCell>
        <mxCell id="pckFmJeNIJPQSOvkH00L-5" value="Administrator" style="shape=umlActor;verticalLabelPosition=bottom;verticalAlign=top;html=1;" vertex="1" parent="1">
          <mxGeometry x="630" y="360" width="30" height="60" as="geometry" />
        </mxCell>
        <mxCell id="pckFmJeNIJPQSOvkH00L-6" value="Seller" style="shape=umlActor;verticalLabelPosition=bottom;verticalAlign=top;html=1;" vertex="1" parent="1">
          <mxGeometry x="630" y="250" width="30" height="60" as="geometry" />
        </mxCell>
        <mxCell id="pckFmJeNIJPQSOvkH00L-7" value="Register&lt;br&gt;with&lt;br&gt;required info" style="ellipse;whiteSpace=wrap;html=1;" vertex="1" parent="1">
          <mxGeometry x="295" y="245" width="90" height="60" as="geometry" />
        </mxCell>
        <mxCell id="pckFmJeNIJPQSOvkH00L-8" value="" style="endArrow=none;html=1;rounded=0;entryX=0;entryY=0.5;entryDx=0;entryDy=0;exitX=1;exitY=0.3333333333333333;exitDx=0;exitDy=0;exitPerimeter=0;" edge="1" parent="1" source="pckFmJeNIJPQSOvkH00L-3" target="pckFmJeNIJPQSOvkH00L-7">
          <mxGeometry width="50" height="50" relative="1" as="geometry">
            <mxPoint x="400" y="490" as="sourcePoint" />
            <mxPoint x="450" y="440" as="targetPoint" />
          </mxGeometry>
        </mxCell>
        <mxCell id="pckFmJeNIJPQSOvkH00L-9" value="Permit access&lt;br&gt;to search DVDs and Videos" style="ellipse;whiteSpace=wrap;html=1;" vertex="1" parent="1">
          <mxGeometry x="420" y="330" width="100" height="60" as="geometry" />
        </mxCell>
        <mxCell id="pckFmJeNIJPQSOvkH00L-10" value="" style="endArrow=none;html=1;rounded=0;entryX=0;entryY=0.3333333333333333;entryDx=0;entryDy=0;entryPerimeter=0;exitX=1;exitY=0.5;exitDx=0;exitDy=0;" edge="1" parent="1" source="pckFmJeNIJPQSOvkH00L-9" target="pckFmJeNIJPQSOvkH00L-5">
          <mxGeometry width="50" height="50" relative="1" as="geometry">
            <mxPoint x="390" y="480" as="sourcePoint" />
            <mxPoint x="440" y="430" as="targetPoint" />
          </mxGeometry>
        </mxCell>
        <mxCell id="pckFmJeNIJPQSOvkH00L-11" value="" style="endArrow=none;html=1;rounded=0;exitX=1;exitY=0.3333333333333333;exitDx=0;exitDy=0;exitPerimeter=0;entryX=0;entryY=0.5;entryDx=0;entryDy=0;" edge="1" parent="1" source="pckFmJeNIJPQSOvkH00L-3" target="pckFmJeNIJPQSOvkH00L-9">
          <mxGeometry width="50" height="50" relative="1" as="geometry">
            <mxPoint x="390" y="480" as="sourcePoint" />
            <mxPoint x="440" y="430" as="targetPoint" />
          </mxGeometry>
        </mxCell>
        <mxCell id="pckFmJeNIJPQSOvkH00L-12" value="Post DVDs" style="ellipse;whiteSpace=wrap;html=1;" vertex="1" parent="1">
          <mxGeometry x="520" y="520" width="56" height="50" as="geometry" />
        </mxCell>
        <mxCell id="pckFmJeNIJPQSOvkH00L-13" value="Post Videos" style="ellipse;whiteSpace=wrap;html=1;" vertex="1" parent="1">
          <mxGeometry x="480" y="585" width="61" height="50" as="geometry" />
        </mxCell>
        <mxCell id="pckFmJeNIJPQSOvkH00L-14" value="" style="endArrow=none;html=1;rounded=0;exitX=1;exitY=0.5;exitDx=0;exitDy=0;entryX=0;entryY=0.3333333333333333;entryDx=0;entryDy=0;entryPerimeter=0;" edge="1" parent="1" source="pckFmJeNIJPQSOvkH00L-12" target="pckFmJeNIJPQSOvkH00L-4">
          <mxGeometry width="50" height="50" relative="1" as="geometry">
            <mxPoint x="390" y="480" as="sourcePoint" />
            <mxPoint x="440" y="430" as="targetPoint" />
          </mxGeometry>
        </mxCell>
        <mxCell id="pckFmJeNIJPQSOvkH00L-15" value="" style="endArrow=none;html=1;rounded=0;exitX=1;exitY=0.5;exitDx=0;exitDy=0;entryX=0;entryY=0.3333333333333333;entryDx=0;entryDy=0;entryPerimeter=0;" edge="1" parent="1" source="pckFmJeNIJPQSOvkH00L-13" target="pckFmJeNIJPQSOvkH00L-4">
          <mxGeometry width="50" height="50" relative="1" as="geometry">
            <mxPoint x="390" y="480" as="sourcePoint" />
            <mxPoint x="440" y="430" as="targetPoint" />
          </mxGeometry>
        </mxCell>
        <mxCell id="pckFmJeNIJPQSOvkH00L-16" value="add new movies" style="ellipse;whiteSpace=wrap;html=1;" vertex="1" parent="1">
          <mxGeometry x="525.5" y="635" width="57" height="50" as="geometry" />
        </mxCell>
        <mxCell id="pckFmJeNIJPQSOvkH00L-17" value="" style="endArrow=none;html=1;rounded=0;entryX=0;entryY=0.3333333333333333;entryDx=0;entryDy=0;entryPerimeter=0;exitX=1;exitY=0.5;exitDx=0;exitDy=0;" edge="1" parent="1" source="pckFmJeNIJPQSOvkH00L-16" target="pckFmJeNIJPQSOvkH00L-4">
          <mxGeometry width="50" height="50" relative="1" as="geometry">
            <mxPoint x="390" y="480" as="sourcePoint" />
            <mxPoint x="440" y="430" as="targetPoint" />
          </mxGeometry>
        </mxCell>
        <mxCell id="pckFmJeNIJPQSOvkH00L-25" value="Give selling privilege" style="ellipse;whiteSpace=wrap;html=1;" vertex="1" parent="1">
          <mxGeometry x="399" y="480" width="70" height="50" as="geometry" />
        </mxCell>
        <mxCell id="pckFmJeNIJPQSOvkH00L-26" value="Cancel selling privilege" style="ellipse;whiteSpace=wrap;html=1;" vertex="1" parent="1">
          <mxGeometry x="399" y="550" width="70" height="50" as="geometry" />
        </mxCell>
        <mxCell id="pckFmJeNIJPQSOvkH00L-27" value="" style="endArrow=none;html=1;rounded=0;entryX=1;entryY=0.5;entryDx=0;entryDy=0;exitX=0;exitY=0.3333333333333333;exitDx=0;exitDy=0;exitPerimeter=0;" edge="1" parent="1" source="pckFmJeNIJPQSOvkH00L-5" target="pckFmJeNIJPQSOvkH00L-25">
          <mxGeometry width="50" height="50" relative="1" as="geometry">
            <mxPoint x="390" y="480" as="sourcePoint" />
            <mxPoint x="440" y="430" as="targetPoint" />
          </mxGeometry>
        </mxCell>
        <mxCell id="pckFmJeNIJPQSOvkH00L-28" value="" style="endArrow=none;html=1;rounded=0;entryX=1;entryY=0.5;entryDx=0;entryDy=0;exitX=0;exitY=0.3333333333333333;exitDx=0;exitDy=0;exitPerimeter=0;" edge="1" parent="1" source="pckFmJeNIJPQSOvkH00L-5" target="pckFmJeNIJPQSOvkH00L-26">
          <mxGeometry width="50" height="50" relative="1" as="geometry">
            <mxPoint x="390" y="480" as="sourcePoint" />
            <mxPoint x="440" y="430" as="targetPoint" />
          </mxGeometry>
        </mxCell>
        <mxCell id="pckFmJeNIJPQSOvkH00L-29" value="" style="endArrow=none;html=1;rounded=0;entryX=0;entryY=0.5;entryDx=0;entryDy=0;exitX=1;exitY=0.3333333333333333;exitDx=0;exitDy=0;exitPerimeter=0;" edge="1" parent="1" source="94VEy6siKFyO08Spkm6c-1" target="pckFmJeNIJPQSOvkH00L-25">
          <mxGeometry width="50" height="50" relative="1" as="geometry">
            <mxPoint x="210" y="260" as="sourcePoint" />
            <mxPoint x="440" y="430" as="targetPoint" />
          </mxGeometry>
        </mxCell>
        <mxCell id="pckFmJeNIJPQSOvkH00L-30" value="" style="endArrow=none;html=1;rounded=0;exitX=1;exitY=0.3333333333333333;exitDx=0;exitDy=0;exitPerimeter=0;entryX=0.047;entryY=0.221;entryDx=0;entryDy=0;entryPerimeter=0;" edge="1" parent="1" source="94VEy6siKFyO08Spkm6c-1" target="pckFmJeNIJPQSOvkH00L-26">
          <mxGeometry width="50" height="50" relative="1" as="geometry">
            <mxPoint x="179.9999999999999" y="460" as="sourcePoint" />
            <mxPoint x="440" y="430" as="targetPoint" />
          </mxGeometry>
        </mxCell>
        <mxCell id="pckFmJeNIJPQSOvkH00L-36" value="" style="endArrow=none;html=1;rounded=0;entryX=0;entryY=0.3333333333333333;entryDx=0;entryDy=0;entryPerimeter=0;exitX=1;exitY=0.5;exitDx=0;exitDy=0;" edge="1" parent="1" source="pckFmJeNIJPQSOvkH00L-7" target="pckFmJeNIJPQSOvkH00L-5">
          <mxGeometry width="50" height="50" relative="1" as="geometry">
            <mxPoint x="420" y="470" as="sourcePoint" />
            <mxPoint x="470" y="420" as="targetPoint" />
          </mxGeometry>
        </mxCell>
        <mxCell id="phPFN39spcZgypUHAS9m-3" value="Purchase the movie" style="ellipse;whiteSpace=wrap;html=1;" vertex="1" parent="1">
          <mxGeometry x="525.5" y="140.5" width="65" height="54.5" as="geometry" />
        </mxCell>
        <mxCell id="phPFN39spcZgypUHAS9m-4" value="" style="endArrow=none;html=1;rounded=0;exitX=1;exitY=0.3333333333333333;exitDx=0;exitDy=0;exitPerimeter=0;entryX=0;entryY=0;entryDx=0;entryDy=0;" edge="1" parent="1" source="pckFmJeNIJPQSOvkH00L-3" target="phPFN39spcZgypUHAS9m-3">
          <mxGeometry width="50" height="50" relative="1" as="geometry">
            <mxPoint x="460" y="430" as="sourcePoint" />
            <mxPoint x="510" y="380" as="targetPoint" />
          </mxGeometry>
        </mxCell>
        <mxCell id="phPFN39spcZgypUHAS9m-5" value="" style="endArrow=none;html=1;rounded=0;exitX=1;exitY=1;exitDx=0;exitDy=0;entryX=0;entryY=0.3333333333333333;entryDx=0;entryDy=0;entryPerimeter=0;" edge="1" parent="1" source="phPFN39spcZgypUHAS9m-3" target="pckFmJeNIJPQSOvkH00L-6">
          <mxGeometry width="50" height="50" relative="1" as="geometry">
            <mxPoint x="460" y="430" as="sourcePoint" />
            <mxPoint x="510" y="380" as="targetPoint" />
          </mxGeometry>
        </mxCell>
        <mxCell id="phPFN39spcZgypUHAS9m-6" value="Pay via debit/credit card" style="ellipse;whiteSpace=wrap;html=1;" vertex="1" parent="1">
          <mxGeometry x="240" y="390" width="76" height="50" as="geometry" />
        </mxCell>
        <mxCell id="phPFN39spcZgypUHAS9m-7" value="" style="endArrow=none;html=1;rounded=0;exitX=0.5;exitY=0;exitDx=0;exitDy=0;entryX=1;entryY=0.3333333333333333;entryDx=0;entryDy=0;entryPerimeter=0;" edge="1" parent="1" source="phPFN39spcZgypUHAS9m-6" target="pckFmJeNIJPQSOvkH00L-3">
          <mxGeometry width="50" height="50" relative="1" as="geometry">
            <mxPoint x="460" y="430" as="sourcePoint" />
            <mxPoint x="510" y="380" as="targetPoint" />
          </mxGeometry>
        </mxCell>
        <mxCell id="phPFN39spcZgypUHAS9m-8" value="Remove purchased movie" style="ellipse;whiteSpace=wrap;html=1;" vertex="1" parent="1">
          <mxGeometry x="360" y="420" width="80" height="50" as="geometry" />
        </mxCell>
        <mxCell id="phPFN39spcZgypUHAS9m-9" value="" style="endArrow=none;html=1;rounded=0;entryX=1;entryY=0;entryDx=0;entryDy=0;exitX=0;exitY=0.3333333333333333;exitDx=0;exitDy=0;exitPerimeter=0;" edge="1" parent="1" source="pckFmJeNIJPQSOvkH00L-5" target="phPFN39spcZgypUHAS9m-8">
          <mxGeometry width="50" height="50" relative="1" as="geometry">
            <mxPoint x="390" y="460" as="sourcePoint" />
            <mxPoint x="440" y="410" as="targetPoint" />
          </mxGeometry>
        </mxCell>
        <mxCell id="phPFN39spcZgypUHAS9m-10" value="" style="endArrow=none;html=1;rounded=0;entryX=0;entryY=0;entryDx=0;entryDy=0;exitX=1;exitY=0.3333333333333333;exitDx=0;exitDy=0;exitPerimeter=0;" edge="1" parent="1" source="pckFmJeNIJPQSOvkH00L-3" target="phPFN39spcZgypUHAS9m-8">
          <mxGeometry width="50" height="50" relative="1" as="geometry">
            <mxPoint x="390" y="460" as="sourcePoint" />
            <mxPoint x="440" y="410" as="targetPoint" />
          </mxGeometry>
        </mxCell>
        <mxCell id="phPFN39spcZgypUHAS9m-12" value="email an invoice" style="ellipse;whiteSpace=wrap;html=1;" vertex="1" parent="1">
          <mxGeometry x="480" y="200" width="72.5" height="50" as="geometry" />
        </mxCell>
        <mxCell id="phPFN39spcZgypUHAS9m-14" value="" style="endArrow=none;html=1;rounded=0;entryX=0;entryY=0.3333333333333333;entryDx=0;entryDy=0;entryPerimeter=0;exitX=1;exitY=0.5;exitDx=0;exitDy=0;" edge="1" parent="1" source="phPFN39spcZgypUHAS9m-12" target="pckFmJeNIJPQSOvkH00L-6">
          <mxGeometry width="50" height="50" relative="1" as="geometry">
            <mxPoint x="380" y="400" as="sourcePoint" />
            <mxPoint x="430" y="350" as="targetPoint" />
          </mxGeometry>
        </mxCell>
        <mxCell id="phPFN39spcZgypUHAS9m-15" value="" style="endArrow=none;html=1;rounded=0;exitX=0;exitY=0;exitDx=0;exitDy=0;entryX=1;entryY=0.3333333333333333;entryDx=0;entryDy=0;entryPerimeter=0;" edge="1" parent="1" source="phPFN39spcZgypUHAS9m-12" target="pckFmJeNIJPQSOvkH00L-3">
          <mxGeometry width="50" height="50" relative="1" as="geometry">
            <mxPoint x="380" y="400" as="sourcePoint" />
            <mxPoint x="430" y="350" as="targetPoint" />
          </mxGeometry>
        </mxCell>
        <mxCell id="94VEy6siKFyO08Spkm6c-1" value="Regular customer" style="shape=umlActor;verticalLabelPosition=bottom;verticalAlign=top;html=1;outlineConnect=0;" vertex="1" parent="1">
          <mxGeometry x="160" y="410" width="30" height="60" as="geometry" />
        </mxCell>
        <mxCell id="94VEy6siKFyO08Spkm6c-2" value="" style="endArrow=block;dashed=1;endFill=0;endSize=12;html=1;rounded=0;exitX=0.5;exitY=0;exitDx=0;exitDy=0;exitPerimeter=0;" edge="1" parent="1" source="94VEy6siKFyO08Spkm6c-1">
          <mxGeometry width="160" relative="1" as="geometry">
            <mxPoint x="410" y="410" as="sourcePoint" />
            <mxPoint x="175" y="330" as="targetPoint" />
          </mxGeometry>
        </mxCell>
        <mxCell id="94VEy6siKFyO08Spkm6c-4" value="Use different searches database" style="ellipse;whiteSpace=wrap;html=1;" vertex="1" parent="1">
          <mxGeometry x="260" y="530" width="80" height="70" as="geometry" />
        </mxCell>
        <mxCell id="94VEy6siKFyO08Spkm6c-5" value="" style="endArrow=none;html=1;rounded=0;exitX=0;exitY=0;exitDx=0;exitDy=0;entryX=1;entryY=0.3333333333333333;entryDx=0;entryDy=0;entryPerimeter=0;" edge="1" parent="1" source="94VEy6siKFyO08Spkm6c-4" target="94VEy6siKFyO08Spkm6c-1">
          <mxGeometry width="50" height="50" relative="1" as="geometry">
            <mxPoint x="470" y="430" as="sourcePoint" />
            <mxPoint x="520" y="380" as="targetPoint" />
          </mxGeometry>
        </mxCell>
        <mxCell id="3veTdVhyxFulOefgd5MP-1" value="Finish searching" style="ellipse;whiteSpace=wrap;html=1;" vertex="1" parent="1">
          <mxGeometry x="340" y="350" width="70" height="50" as="geometry" />
        </mxCell>
        <mxCell id="3veTdVhyxFulOefgd5MP-2" value="" style="endArrow=none;html=1;rounded=0;exitX=1;exitY=0.3333333333333333;exitDx=0;exitDy=0;exitPerimeter=0;entryX=0;entryY=0;entryDx=0;entryDy=0;" edge="1" parent="1" source="pckFmJeNIJPQSOvkH00L-3" target="3veTdVhyxFulOefgd5MP-1">
          <mxGeometry width="50" height="50" relative="1" as="geometry">
            <mxPoint x="400" y="380" as="sourcePoint" />
            <mxPoint x="450" y="330" as="targetPoint" />
          </mxGeometry>
        </mxCell>
      </root>
    </mxGraphModel>
  </diagram>
</mxfile>
